# xmcd CD database file
#
# Track frame offsets:
#	150
#	21789
#	36853
#	52223
#	64880
#	77373
#	92728
#	106794
#	125744
#	141815
#	152843
#	167680
#	179278
#	192218
#	205345
#
# Disc length: 2953 seconds
#
# Revision: 0
# Processed by: cddbd v1.4PL0 Copyright (c) Steve Scherf et al.
# Submitted via: CDex 1.50
#
DISCID=cc0b870f
DTITLE=Bunny Berigan and his Orchestra - I Can't Get Started
DYEAR=2001
DGENRE=Jazz
TTITLE0=I Can't Get Started
TTITLE1=Trees
TTITLE2=Jelly Roll Blues
TTITLE3=Deed I Do
TTITLE4=High Society
TTITLE5=Black Bottom
TTITLE6=Russian Lullaby
TTITLE7=The Prisoner's Song
TTITLE8=Caravan
TTITLE9=Swanee River
TTITLE10=Never Felt Better, Never Had Less
TTITLE11=Shango, Shango, Shango, Shangoree
TTITLE12=Frankie and Johnny
TTITLE13='Cause My Baby Says It's So
TTITLE14=The Wearin' of the Green
EXTD=YEAR: 2001
EXTT0=
EXTT1=
EXTT2=
EXTT3=
EXTT4=
EXTT5=
EXTT6=
EXTT7=
EXTT8=
EXTT9=
EXTT10=
EXTT11=
EXTT12=
EXTT13=
EXTT14=
PLAYORDER=
